# AST/ASF file generated using VICON BodyLanguage
# -----------------------------------------------
:version 1.10
:name VICON
:units
  mass 1.0
  length 0.45
  angle deg
:documentation
   .ast/.asf automatically generated from VICON data using
   VICON BodyBuilder and BodyLanguage model FoxedUp or BRILLIANT.MOD
:root
   order TX TY TZ RX RY RZ
   axis XYZ
   position 0 0 0  
   orientation 0 0 0 
:bonedata
  begin
     id 1 
     name lhipjoint
     direction 0.606768 -0.715223 0.346827 
     length 2.41543 
     axis 0 0 0  XYZ
  end
  begin
     id 2 
     name lfemur
     direction 0.34202 -0.939693 0  
     length 7.2778  
     axis 0 0 20  XYZ
    dof rx ry rz
    limits (-160.0 20.0)
           (-70.0 70.0)
           (-60.0 70.0)
  end
  begin
     id 3 
     name ltibia
     direction 0.34202 -0.939693 0   
     length 7.61811   
     axis 0 0 20   XYZ
    dof rx
    limits (-10.0 170.0)
  end
  begin
     id 4 
     name lfoot
     direction 0.0823924 -0.226371 0.97055   
     length 2.33618   
     axis -90 7.62852e-016 20   XYZ
    dof rx rz
    limits (-45.0 90.0)
           (-70.0 20.0)
  end
  begin
     id 5 
     name ltoes
     direction 1.53554e-011 -4.21934e-011 1   
     length 1.17015   
     axis -90 7.62852e-016 20   XYZ
    dof rx
    limits (-90.0 20.0)
  end
  begin
     id 6 
     name rhipjoint
     direction -0.6077 -0.714582 0.346516   
     length 2.4176  
     axis 0 0 0  XYZ 
  end
  begin
     id 7 
     name rfemur
     direction -0.34202 -0.939693 0   
     length 7.28127   
     axis 0 0 -20   XYZ
    dof rx ry rz
    limits (-160.0 20.0)
           (-70.0 70.0)
           (-70.0 60.0)
  end
  begin
     id 8 
     name rtibia
     direction -0.34202 -0.939693 0   
     length 7.77648   
     axis 0 0 -20   XYZ
    dof rx
    limits (-10.0 170.0)
 end
 begin
     id 9 
     name rfoot
     direction -0.0809463 -0.222398 0.97159   
     length 2.37533  
     axis -90 -7.62852e-016 -20   XYZ
    dof rx rz
    limits (-45.0 90.0)
           (-20.0 70.0)
  end
  begin
     id 10 
     name rtoes
     direction -1.53568e-011 -4.21714e-011 1   
     length 1.18972   
     axis -90 -7.62852e-016 -20   XYZ
    dof rx
    limits (-90.0 20.0)
  end
  begin
     id 11 
     name lowerback
     direction 0.010968 0.991932 -0.126297   
     length 2.21698   
     axis 0 0 0   XYZ
    dof rx ry rz
    limits (-20.0 45.0)
           (-30.0 30.0)
           (-30.0 30.0)
  end
  begin
     id 12 
     name upperback
     direction 0.0167007 0.997503 -0.0686276   
     length 2.22371   
     axis 0 0 0   XYZ
    dof rx ry rz
    limits (-20.0 45.0)
           (-30.0 30.0)
           (-30.0 30.0)
  end
  begin
     id 13 
     name thorax
     direction 0.0111721 0.999885 -0.0102878   
     length 2.25242   
     axis 0 0 0   XYZ
    dof rx ry rz
    limits (-20.0 45.0)
           (-30.0 30.0)
           (-30.0 30.0)
  end
  begin
     id 14 
     name lowerneck
     direction -0.0120265 0.990428 0.137508   
     length 1.57674   
     axis 0 0 0   XYZ
    dof rx ry rz
    limits (-20.0 45.0)
           (-30.0 30.0)
           (-30.0 30.0)
  end
  begin
     id 15 
     name upperneck
     direction 0.0175669 0.998907 0.0433089   
     length 1.5618   
     axis 0 0 0   XYZ
    dof rx ry rz
    limits (-20.0 45.0)
           (-30.0 30.0)
           (-30.0 30.0)
  end
  begin
     id 16
     name head
     direction 0.00754609 0.99997 0.00185367  
     length 1.60579  
     axis 0 0 0   XYZ
    dof rx ry rz
    limits (-20.0 45.0)
           (-30.0 30.0)
           (-30.0 30.0)
  end
  begin
     id 17 
     name lclavicle
     direction 0.885866 0.429166 -0.176231  
     length 3.44967  
     axis 0 0 0   XYZ
    dof ry rz
    limits (-20.0 10.0)
           (0.0 20.0)
  end
  begin
     id 18 
     name lhumerus
     direction 1 -4.48973e-011 -1.90255e-027   
     length 5.20607   
     axis 180 -30 -90   XYZ
    dof rx ry rz
    limits (-60.0 90.0)
           (-90.0 90.0)
           (-90.0 90.0)
  end
  begin
     id 19
     name lradius
     direction 1 -4.48956e-011 9.87925e-027   
     length 3.39961   
     axis 180 -30 -90   XYZ
    dof rx
    limits (-10.0 170.0)
  end
  begin
     id 20
     name lwrist
     direction 1 -4.48985e-011 1.73247e-026   
     length 1.6998   
     axis -9.60847e-015 90 90   XYZ
    dof ry
    limits (-180.0 0.0)
 end
  begin
     id 21 
     name lhand
     direction 1 -4.48798e-011 3.46119e-026   
     length 0.519693   
     axis -2.21073e-014 90 90   XYZ
    dof rx rz
    limits (-90.0 90.0)
           (-45.0 45.0)
  end
  begin
     id 22 
     name lfingers
     direction 1 -4.48938e-011 6.92797e-026   
     length 0.41899   
     axis -4.42155e-014 90 90   XYZ
    dof rx
    limits (0.0 90.0)
  end
  begin
     id 23
     name lthumb
     direction 0.707107 -6.34952e-011 0.707107   
     length 0.601588   
     axis -90 45 6.0103e-014   XYZ
    dof rx rz
    limits (-45.0 45.0)
           (-45.0 45.0)
  end
  begin
     id 24 
     name rclavicle
     direction -0.866736 0.456792 -0.200276   
     length 3.45032  
     axis 0 0 0   XYZ 
    dof ry rz
    limits (-10.0 20.0)
           (-20.0 0.0)
  end
  begin
     id 25 
     name rhumerus
     direction -1 -4.4897e-011 8.65094e-028  
     length 5.32214   
     axis 180 30 90   XYZ
    dof rx ry rz
    limits (-90.0 60.0)
           (-90.0 90.0)
           (-90.0 90.0)
  end
  begin
     id 26 
     name rradius
     direction -1 -4.48987e-011 1.08427e-026   
     length 3.51208   
     axis 180 30 90   XYZ
    dof rx
    limits (-10.0 170.0)
  end
  begin
     id 27 
     name rwrist
     direction -1 -4.48961e-011 1.73222e-026   
     length 1.75604   
     axis -9.60847e-015 -90 -90   XYZ
    dof ry
    limits (-180.0 0.0)
  end
  begin
     id 28
     name rhand
     direction -1 -4.48895e-011 3.46314e-026   
     length 0.586681   
     axis -2.21073e-014 -90 -90   XYZ
    dof rx rz
    limits (-90.0 90.0)
           (-45.0 45.0)
  end
  begin
     id 29
     name rfingers
     direction -1 -4.48968e-011 6.92916e-026   
     length 0.472997   
     axis -4.42155e-014 -90 -90   XYZ
    dof rx
    limits (0.0 90.0)
  end
  begin
     id 30
     name rthumb
     direction -0.707107 -6.34848e-011 0.707107   
     length 0.679133   
     axis -90 -45 -6.0103e-014   XYZ
    dof rx rz
    limits (-45.0 45.0)
           (-45.0 45.0)
  end
:hierarchy
  begin
    root lhipjoint rhipjoint lowerback
    lhipjoint lfemur
    lfemur ltibia
    ltibia lfoot
    lfoot ltoes
    rhipjoint rfemur
    rfemur rtibia
    rtibia rfoot
    rfoot rtoes
    lowerback upperback
    upperback thorax
    thorax lowerneck lclavicle rclavicle
    lowerneck upperneck
    upperneck head
    lclavicle lhumerus
    lhumerus lradius
    lradius lwrist
    lwrist lhand lthumb
    lhand lfingers
    rclavicle rhumerus
    rhumerus rradius
    rradius rwrist
    rwrist rhand rthumb
    rhand rfingers
  end

#!OML:ASF H:\Dans Jumps\Project 1\Capture day 1\Session 1\subject.ASF
:FULLY-SPECIFIED
:DEGREES
52
root 0.544079 17.6173 -13.9216 6.72801 -1.59704 -0.972623
lowerback -3.53339 -0.275631 -0.220799
upperback 3.27402 -0.416499 1.23993
thorax 5.38252 -0.241415 1.37521
lowerneck -12.8293 0.809145 -1.77695
upperneck 33.2305 1.31184 1.02567
head 13.2688 0.480824 0.908239
rclavicle 3.32964e-015 -8.74653e-015
rhumerus -21.83 -9.51735 -84.4296
rradius 29.2547
rwrist 28.0323
rhand -17.9352 -27.0434
rfingers 7.12502
rthumb 8.33288 -56.8591
lclavicle 3.32964e-015 -8.74653e-015
lhumerus -19.2467 -8.3742 91.5178
lradius 24.8309
lwrist 5.59473
lhand -24.388 -2.85107
lfingers 7.12502
lthumb 2.10263 27.1183
rfemur -14.2273 -2.72288 19.4097
rtibia 22.9304
rfoot -14.1871 -4.09783
rtoes 12.091
lfemur -12.3812 6.01606 -18.7205
ltibia 19.0587
lfoot -10.7965 7.08182
ltoes 5.99165
53
root 0.544712 17.6172 -13.9211 6.73049 -1.58815 -0.970684
lowerback -3.5323 -0.275602 -0.215896
upperback 3.27257 -0.416737 1.24007
thorax 5.38034 -0.241332 1.37257
lowerneck -12.8185 0.813059 -1.77458
upperneck 33.2336 1.31719 1.02454
head 13.2677 0.483338 0.90812
rclavicle -5.61567e-015 -1.05356e-014
rhumerus -21.8336 -9.52535 -84.4206
rradius 29.2268
rwrist 28.0599
rhand -17.9415 -27.0415
rfingers 7.12502
rthumb 8.32682 -56.8574
lclavicle -5.61567e-015 -1.05356e-014
lhumerus -19.2463 -8.39591 91.5118
lradius 24.8385
lwrist 5.61097
lhand -24.3884 -2.84981
lfingers 7.12502
lthumb 2.10227 27.1196
rfemur -14.2275 -2.72184 19.406
rtibia 22.9332
rfoot -14.1907 -4.10787
rtoes 12.0942
lfemur -12.3836 6.01506 -18.7247
ltibia 19.0591
lfoot -10.7974 7.0749
ltoes 5.98083
54
root 0.545329 17.6172 -13.9206 6.73298 -1.57988 -0.970106
lowerback -3.52958 -0.275041 -0.209044
upperback 3.27138 -0.416376 1.24016
thorax 5.37747 -0.240873 1.36886
lowerneck -12.8088 0.817504 -1.77317
upperneck 33.2373 1.32307 1.02504
head 13.2671 0.486176 0.908901
rclavicle -7.95139e-016 -8.94531e-015
rhumerus -21.839 -9.54587 -84.4046
rradius 29.1889
rwrist 28.0964
rhand -17.9484 -27.0309
rfingers 7.12502
rthumb 8.3201 -56.8471
lclavicle -7.95139e-016 -8.94531e-015
lhumerus -19.2457 -8.40317 91.4997
lradius 24.8307
lwrist 5.61328
lhand -24.3752 -2.83116
lfingers 7.12502
lthumb 2.11504 27.1381
rfemur -14.2273 -2.72044 19.4038
rtibia 22.9338
rfoot -14.1932 -4.11666
rtoes 12.1058
lfemur -12.3872 6.01363 -18.7273
ltibia 19.0619
lfoot -10.7995 7.06795
ltoes 5.9725
55
root 0.545966 17.6171 -13.9199 6.73402 -1.574 -0.968427
lowerback -3.5281 -0.274357 -0.203617
upperback 3.27197 -0.415799 1.24045
thorax 5.37718 -0.240385 1.36616
lowerneck -12.8013 0.823154 -1.77291
upperneck 33.2426 1.33084 1.02625
head 13.2676 0.489773 0.910485
rclavicle 2.33572e-015 -7.55382e-015
rhumerus -21.8462 -9.5732 -84.3823
rradius 29.1441
rwrist 28.1366
rhand -17.9529 -27.0268
rfingers 7.12502
rthumb 8.31582 -56.8431
lclavicle 2.33572e-015 -7.55382e-015
lhumerus -19.2457 -8.39377 91.4823
lradius 24.8123
lwrist 5.60567
lhand -24.354 -2.79797
lfingers 7.12502
lthumb 2.1355 27.1711
rfemur -14.2248 -2.72224 19.3999
rtibia 22.9323
rfoot -14.1954 -4.12026
rtoes 12.1237
lfemur -12.3882 6.01344 -18.7312
ltibia 19.0659
lfoot -10.8049 7.06135
ltoes 5.98107
56
root 0.546558 17.617 -13.9192 6.73436 -1.56924 -0.968575
lowerback -3.52626 -0.272941 -0.196561
upperback 3.27424 -0.414364 1.24089
thorax 5.37842 -0.239424 1.36278
lowerneck -12.7975 0.829798 -1.77239
upperneck 33.2481 1.33951 1.0292
head 13.269 0.494018 0.912874
rclavicle 2.73329e-015 6.55989e-015
rhumerus -21.8553 -9.60959 -84.3545
rradius 29.0949
rwrist 28.1819
rhand -17.9487 -27.0319
rfingers 7.12502
rthumb 8.31986 -56.8481
lclavicle 2.73329e-015 6.55989e-015
lhumerus -19.2457 -8.37098 91.4592
lradius 24.7787
lwrist 5.57805
lhand -24.3462 -2.78332
lfingers 7.12502
lthumb 2.14298 27.1857
rfemur -14.2213 -2.72426 19.398
rtibia 22.9298
rfoot -14.197 -4.12241
rtoes 12.1434
lfemur -12.3881 6.013 -18.733
ltibia 19.0695
lfoot -10.8099 7.05495
ltoes 5.99151
57
root 0.547096 17.617 -13.9184 6.73342 -1.56343 -0.96723
lowerback -3.52517 -0.272482 -0.192724
upperback 3.27849 -0.414093 1.24239
thorax 5.38224 -0.239205 1.36222
lowerneck -12.7968 0.837833 -1.77443
upperneck 33.2562 1.35033 1.03416
head 13.272 0.499119 0.916873
rclavicle 2.78299e-015 -1.78906e-015
rhumerus -21.8656 -9.65305 -84.3191
rradius 29.0392
rwrist 28.2356
rhand -17.9484 -27.0297
rfingers 7.12502
rthumb 8.32009 -56.8459
lclavicle 2.78299e-015 -1.78906e-015
lhumerus -19.2459 -8.33422 91.4323
lradius 24.7334
lwrist 5.53571
lhand -24.3366 -2.7805
lfingers 7.12502
lthumb 2.15223 27.1884
rfemur -14.2158 -2.72868 19.3947
rtibia 22.9274
rfoot -14.1995 -4.12462
rtoes 12.1586
lfemur -12.3847 6.01145 -18.736
ltibia 19.0712
lfoot -10.8163 7.04762
ltoes 6.00506
58
root 0.547626 17.617 -13.9175 6.73127 -1.55743 -0.964756
lowerback -3.52355 -0.272589 -0.189681
upperback 3.28303 -0.414508 1.24344
thorax 5.38606 -0.239347 1.36158
lowerneck -12.7945 0.847119 -1.77708
upperneck 33.2636 1.36222 1.0417
head 13.2744 0.50496 0.92213
rclavicle -1.49089e-016 -5.56597e-015
rhumerus -21.8809 -9.70659 -84.2778
rradius 28.9767
rwrist 28.3025
rhand -17.9486 -27.0278
rfingers 7.12502
rthumb 8.31995 -56.8439
lclavicle -1.49089e-016 -5.56597e-015
lhumerus -19.2507 -8.28393 91.4005
lradius 24.6773
lwrist 5.47527
lhand -24.3334 -2.79372
lfingers 7.12502
lthumb 2.1554 27.1751
rfemur -14.2089 -2.73651 19.3903
rtibia 22.9261
rfoot -14.2028 -4.12537
rtoes 12.1645
lfemur -12.3789 6.01029 -18.7402
ltibia 19.0711
lfoot -10.8226 7.0404
ltoes 6.01536
59
root 0.548118 17.617 -13.9167 6.7287 -1.55132 -0.961586
lowerback -3.52024 -0.272837 -0.187491
upperback 3.28665 -0.415041 1.24445
thorax 5.38797 -0.239569 1.36137
lowerneck -12.7909 0.857152 -1.77948
upperneck 33.2726 1.37466 1.05058
head 13.2771 0.511231 0.927957
rclavicle -1.63997e-015 9.54166e-015
rhumerus -21.9007 -9.76998 -84.2297
rradius 28.9062
rwrist 28.3794
rhand -17.9469 -27.0282
rfingers 7.12502
rthumb 8.32159 -56.8443
lclavicle -1.63997e-015 9.54166e-015
lhumerus -19.2614 -8.22152 91.3648
lradius 24.6118
lwrist 5.39788
lhand -24.3311 -2.80644
lfingers 7.12502
lthumb 2.15761 27.1624
rfemur -14.2022 -2.7432 19.3853
rtibia 22.9265
rfoot -14.2075 -4.12803
rtoes 12.1628
lfemur -12.372 6.00775 -18.7451
ltibia 19.0689
lfoot -10.8268 7.03441
ltoes 6.02774
